<svg width="120" height="25" viewBox="0 0 120 25" fill="none" xmlns="http://www.w3.org/2000/svg">
<g clip-path="url(#clip0_1232_50767)">
<path d="M41.6585 22.9274V17.5482C40.6815 18.6064 39.2603 19.1355 37.8391 19.1355C34.1086 19.1355 31.4883 15.9168 31.4883 12.3454C31.4883 8.86215 34.2862 5.81982 37.8391 5.81982C39.5268 5.81982 40.9035 6.39302 41.8362 7.80395H41.8806V6.21665H44.6341V22.9274H41.6585ZM38.15 8.55351C36.0183 8.55351 34.4639 10.3613 34.4639 12.4336C34.4639 14.55 35.9294 16.4018 38.15 16.4018C40.2374 16.4018 41.7918 14.55 41.7918 12.5218C41.7918 10.4495 40.3262 8.55351 38.15 8.55351Z" fill="white"/>
<path d="M54.6257 18.7387V17.46H54.5813C53.7375 18.6064 52.8048 19.1355 51.3392 19.1355C49.7404 19.1355 48.0528 18.5182 47.1201 17.1514C46.2763 15.9168 46.1875 14.3295 46.1875 12.8745V6.26074H49.2075V12.6099C49.2075 14.4177 49.5628 16.4018 51.8278 16.4018C53.9151 16.4018 54.3592 14.3295 54.3592 12.654V6.26074H57.3792V18.7387H54.6257Z" fill="white"/>
<path d="M65.2413 19.1352C61.5551 19.1352 58.5352 16.1369 58.5352 12.4773C58.5352 8.81771 61.5107 5.77539 65.2413 5.77539C68.9719 5.77539 71.903 8.72953 71.903 12.4332C71.903 16.2251 69.0607 19.1352 65.2413 19.1352ZM65.2413 8.55316C63.1095 8.55316 61.5551 10.4491 61.5551 12.4773C61.5551 14.5496 63.0651 16.3574 65.2413 16.3574C67.373 16.3574 68.883 14.5496 68.883 12.4773C68.883 10.5373 67.373 8.55316 65.2413 8.55316Z" fill="white"/>
<path d="M81.1859 18.739V12.5662C81.1859 10.8466 80.875 8.55385 78.6544 8.55385C77.855 8.55385 77.0556 8.99477 76.6115 9.65615C76.0786 10.4498 76.0786 11.8607 76.0786 12.7867V18.739H73.0586V6.26108H75.8565V7.36338C76.8336 6.39336 77.855 5.86426 79.3206 5.86426C80.6974 5.86426 82.2074 6.52563 83.0956 7.58384C84.0727 8.77431 84.2503 10.3616 84.2503 11.8166V18.739H81.1859Z" fill="white"/>
<path d="M95.9758 18.7388V17.1956H95.9314C95.0875 18.5183 93.4443 19.1356 91.9343 19.1356C88.2482 19.1356 85.5391 16.0492 85.5391 12.4778C85.5391 9.78817 87.0046 7.45131 89.4917 6.34901C90.2467 5.99628 91.0905 5.81991 91.9787 5.81991C93.5331 5.81991 94.7322 6.21674 95.7981 7.36312V2.11621H98.8181V18.7829H95.9758V18.7388ZM92.2008 8.5536C90.1579 8.5536 88.4702 10.4055 88.4702 12.3896C88.4702 14.4619 89.9802 16.4019 92.2008 16.4019C94.3325 16.4019 95.9314 14.5501 95.9314 12.4778C95.9314 10.4495 94.3325 8.5536 92.2008 8.5536Z" fill="white"/>
<path d="M112.628 13.8445H102.858C102.947 14.1973 103.08 14.4618 103.258 14.7264C103.924 15.7405 105.078 16.4018 106.322 16.4018C107.565 16.4018 108.631 15.9168 109.209 14.8145H112.362C111.563 17.3719 108.942 19.1355 106.278 19.1355C102.503 19.1355 99.6602 16.2255 99.6602 12.5218C99.6602 8.77397 102.458 5.81982 106.278 5.81982C109.964 5.81982 112.762 8.68579 112.762 12.3013C112.806 12.8304 112.762 13.3595 112.628 13.8445ZM106.322 8.55351C104.501 8.55351 103.213 9.6558 102.769 11.4195H109.742C109.431 9.61171 108.187 8.55351 106.322 8.55351Z" fill="white"/>
<path d="M117.247 11.7281V18.7387H114.227V6.26074H116.98V7.36303H117.024C117.868 6.12847 118.49 5.81982 119.956 5.81982V8.72988C118.046 8.81806 117.247 9.92035 117.247 11.7281Z" fill="white"/>
<path d="M22.0281 18.739C22.4722 18.739 22.9164 18.8272 23.3161 19.0035C24.4708 17.1076 25.1813 14.8589 25.1813 12.478C25.1813 5.59965 19.5411 0 12.5685 0C5.59585 0 0 5.59965 0 12.478C0 19.3563 5.64027 24.9559 12.5685 24.9559C14.9667 24.9559 17.2317 24.2945 19.1414 23.1041C18.9637 22.7072 18.8749 22.2663 18.8749 21.8254C18.8749 20.1499 20.2961 18.739 22.0281 18.739ZM12.5685 18.739C9.10437 18.739 6.26203 15.9612 6.26203 12.478C6.26203 8.99471 9.05996 6.21693 12.5685 6.21693C16.077 6.21693 18.8749 8.99471 18.8749 12.478C18.8749 15.9612 16.077 18.739 12.5685 18.739Z" fill="white"/>
<path d="M23.3153 19.0483C22.2938 20.7238 20.8283 22.1348 19.1406 23.193C19.6292 24.2953 20.7394 25.0448 22.0274 25.0448C23.7594 25.0448 25.1806 23.6339 25.1806 21.9143C25.1806 20.5915 24.4256 19.5333 23.3153 19.0483Z" fill="white"/>
</g>
<defs>
<clipPath id="clip0_1232_50767">
<rect width="120" height="25" fill="white"/>
</clipPath>
</defs>
</svg>
